<svg width="1024" height="1024" viewBox="0 0 1024 1024" fill="none" xmlns="http://www.w3.org/2000/svg">
<circle cx="512" cy="512" r="487" fill="white" stroke="black" stroke-width="50"/>
<mask id="mask0_5_151" style="mask-type:alpha" maskUnits="userSpaceOnUse" x="132" y="472" width="759" height="759">
<path d="M829 851.5C829 1026.85 686.851 1169 511.5 1169C336.15 1169 194 1026.85 194 851.5C194 676.15 336.15 534 511.5 534C686.851 534 829 676.15 829 851.5Z" fill="black"/>
<path d="M571.5 1208.96C536.428 1237.04 486.572 1237.04 451.5 1208.96L306.278 1092.69C235.454 1035.98 275.551 921.75 366.279 921.75H656.722C747.449 921.75 787.546 1035.98 716.722 1092.69L571.5 1208.96Z" fill="black"/>
<path d="M511.5 1169C336.15 1169 194 1026.85 194 851.5C194 676.15 336.15 534 511.5 534C686.851 534 829 676.15 829 851.5C829 1026.85 686.851 1169 511.5 1169Z" fill="black"/>
<path d="M154.039 911.5C125.959 876.428 125.959 826.572 154.039 791.5L270.311 646.278C327.016 575.454 441.25 615.551 441.25 706.279V996.722C441.25 1087.45 327.016 1127.55 270.31 1056.72L154.039 911.5Z" fill="black"/>
<path d="M451.5 494.039C486.572 465.959 536.428 465.959 571.5 494.039L716.722 610.31C787.546 667.016 747.449 781.25 656.721 781.25H366.279C275.551 781.25 235.455 667.015 306.279 610.31L451.5 494.039Z" fill="black"/>
<path d="M868.961 791.5C897.041 826.572 897.041 876.428 868.961 911.5L752.69 1056.72C695.985 1127.55 581.75 1087.45 581.75 996.721V706.279C581.75 615.551 695.985 575.454 752.69 646.278L868.961 791.5Z" fill="black"/>
</mask>
<g mask="url(#mask0_5_151)">
<path d="M1024 483C1024 765.77 794.77 995 512 995C229.23 995 0 765.77 0 483C0 200.23 229.23 -29 512 -29C794.77 -29 1024 200.23 1024 483Z" fill="black"/>
<path d="M1024 483C1024 765.77 794.77 995 512 995C229.23 995 0 765.77 0 483C0 200.23 229.23 -29 512 -29C794.77 -29 1024 200.23 1024 483Z" fill="black"/>
</g>
</svg>
