<svg width="800" height="800" viewBox="0 0 800 800" fill="none" xmlns="http://www.w3.org/2000/svg">
<g clip-path="url(#clip0_10_33)">
<path d="M400 0C179.436 0 0 179.436 0 400C0 620.564 179.436 800 400 800C620.564 800 800 620.564 800 400C800 179.436 620.564 0 400 0ZM756.876 474.911C755.216 482.822 753.026 490.521 750.872 498.238C747.411 497.214 743.914 496.278 740.347 495.519C731.394 493.629 722.123 492.605 712.622 492.605C699.907 492.605 687.652 494.495 675.997 497.815C666.955 500.393 658.267 503.836 650.108 508.163C639.548 513.761 629.871 520.754 621.218 528.86C598.419 550.174 582.985 579.242 579.383 611.894C578.853 616.767 578.517 621.694 578.517 626.71C578.517 633.773 579.224 640.643 580.283 647.406C581.696 656.501 584.01 665.277 587.171 673.666C591.109 684.155 596.247 694.027 602.534 703.086C595.841 707.571 588.831 711.633 581.837 715.677C574.897 719.686 567.781 723.412 560.558 726.979C555.702 719.65 551.481 711.88 547.72 703.863C544.294 696.57 541.168 689.1 538.714 681.312C536.135 673.101 534.316 664.589 532.904 655.936C531.35 646.4 530.343 636.687 530.343 626.727C530.343 615.514 531.509 604.583 533.451 593.934C539.844 558.951 556.249 527.5 579.595 502.53C593.757 487.36 610.41 474.61 629.005 464.968C636.563 461.048 644.457 457.693 652.58 454.85C660.298 452.148 668.174 449.781 676.314 448.121C688.04 445.737 700.19 444.466 712.604 444.466C722.105 444.466 731.358 445.42 740.471 446.832C747.34 447.892 754.068 449.305 760.673 451.106C759.56 459.053 758.518 467.088 756.876 474.911ZM731.394 551.322C709.902 598.19 678.822 639.654 640.607 673.33C632.219 660.404 627.257 645.111 626.886 628.652C626.869 627.981 626.692 627.345 626.692 626.674C626.692 597.625 641.208 572.054 663.282 556.496C677.268 546.643 694.221 540.744 712.622 540.744C719.827 540.744 726.714 541.892 733.407 543.57C733.919 543.693 734.413 543.905 734.926 544.047C733.831 546.537 732.524 548.868 731.394 551.322ZM734.202 398.976C727.085 398.305 719.898 397.881 712.604 397.881C697.594 397.881 682.954 399.435 668.739 402.207C660.81 403.744 653.022 405.651 645.411 407.982C637.658 410.366 630.083 413.174 622.683 416.335C607.549 422.833 593.369 431.027 580.124 440.475C572.372 446.002 565.026 452.042 558.033 458.47C549.274 466.522 541.08 475.175 533.663 484.5C514.397 508.693 500.057 536.842 491.828 567.533C488.72 579.118 486.248 590.967 484.994 603.205C484.199 610.922 483.793 618.763 483.793 626.674C483.793 628.281 484.005 629.853 484.04 631.442C484.394 648.148 486.583 664.377 490.345 680.023C492.252 687.952 494.565 695.687 497.285 703.28C499.987 710.874 503.077 718.238 506.538 725.443C509.77 732.171 513.319 738.687 517.169 745.027C509.311 747.693 501.329 750.007 493.241 752.161C485.171 754.298 477.1 756.382 468.818 757.971C465.657 752.126 462.885 746.069 460.147 739.994C456.845 732.648 453.896 725.125 451.23 717.461C448.581 709.832 446.285 702.062 444.289 694.168C441.234 682.018 438.744 669.657 437.367 656.942C437.049 654.081 436.943 651.168 436.731 648.289C436.184 641.137 435.636 633.968 435.636 626.674C435.636 625.685 435.778 624.732 435.778 623.76C435.866 615.266 436.219 606.843 437.049 598.561C437.12 597.837 437.279 597.13 437.367 596.424C439.504 576.875 443.76 557.997 449.764 539.879C458.364 513.902 470.708 489.656 486.16 467.723C497.726 451.282 511.094 436.272 525.875 422.727C532.127 417.006 538.608 411.567 545.371 406.428C551.817 401.519 558.457 396.874 565.326 392.548C578.394 384.301 592.08 376.937 606.507 370.933C613.942 367.842 621.518 365.035 629.27 362.58C636.987 360.143 644.899 358.148 652.898 356.364C672.147 352.108 692.084 349.706 712.604 349.706C714.988 349.706 717.284 350.007 719.65 350.06C733.901 350.413 747.852 351.843 761.503 354.298C762.527 362.421 763.145 370.668 763.622 378.95C764.028 385.961 764.681 392.901 764.681 400.018C764.681 401.377 764.487 402.684 764.47 404.044C754.598 401.731 744.532 399.947 734.202 398.976ZM66.4342 546.837C66.9992 546.607 67.6173 546.501 68.2001 546.289C77.4359 542.899 87.2897 540.762 97.7087 540.762C111.289 540.762 123.968 544.206 135.394 549.821C163.86 563.825 183.639 592.821 183.639 626.692C183.639 631.177 182.985 635.486 182.314 639.777C180.054 654.417 174.156 667.697 165.503 678.91C125.522 645.234 93.0996 603.046 70.4958 555.296C69.1713 552.452 67.7056 549.698 66.4342 546.837ZM220.688 679.988C224.149 672.023 226.869 663.653 228.74 654.964C230.718 645.835 231.813 636.387 231.813 626.674C231.813 625.632 231.69 624.626 231.654 623.602C230.683 580.654 209.439 542.722 177.105 518.864C168.734 512.684 159.728 507.351 150.033 503.236C141.98 499.81 133.539 497.144 124.763 495.342C116.021 493.541 106.962 492.587 97.7087 492.587C84.8528 492.587 72.456 494.512 60.6772 497.903C57.0394 498.945 53.4899 500.181 49.9757 501.523C47.733 493.806 45.6669 486.001 43.9362 478.072C42.2056 470.16 40.9695 462.108 39.7687 454.02C46.4792 451.759 53.2957 449.781 60.324 448.298C72.403 445.773 84.8881 444.413 97.7087 444.413C106.874 444.413 115.827 445.314 124.639 446.62C132.762 447.839 140.727 449.481 148.461 451.742C156.602 454.108 164.478 457.022 172.107 460.448C189.59 468.306 205.571 478.866 219.628 491.563C251.468 520.313 273.153 560.011 278.54 604.759C279.405 611.946 279.988 619.24 279.988 626.657C279.988 638.647 278.751 650.355 276.526 661.71C274.902 670.028 272.606 678.08 269.887 685.939C267.238 693.621 264.077 701.055 260.474 708.242C256.554 716.048 252.157 723.553 247.194 730.652C239.795 727.226 232.378 723.836 225.262 719.933C218.163 716.048 211.364 711.686 204.565 707.342C210.94 698.954 216.414 689.806 220.688 679.988ZM302.362 728.392C305.929 721.24 309.108 713.893 311.916 706.335C314.723 698.83 317.125 691.148 319.121 683.29C323.023 668.032 325.372 652.192 326.025 635.892C326.149 632.82 326.484 629.782 326.484 626.674C326.484 620.723 326.043 614.878 325.584 609.05C324.754 598.313 323.27 587.771 321.01 577.493C312.251 537.672 293.02 501.841 266.461 472.738C259.273 464.862 251.715 457.322 243.504 450.505C236.563 444.749 229.2 439.521 221.606 434.612C208.291 425.994 194.005 418.789 178.994 413.05C171.507 410.189 163.843 407.752 156.02 405.669C148.32 403.638 140.462 402.013 132.462 400.777C121.09 399.029 109.54 397.846 97.6734 397.846C87.0072 397.846 76.5882 398.834 66.3105 400.247C55.8386 401.695 45.5962 403.797 35.6187 406.622C35.5834 404.379 35.2832 402.225 35.2832 399.982C35.2832 393.784 35.9013 387.727 36.2192 381.599C36.643 373.087 37.1551 364.628 38.1617 356.276C52.0772 353.221 66.4165 351.384 81.0384 350.501C86.5834 350.166 92.0754 349.653 97.691 349.653C115.174 349.653 132.215 351.472 148.797 354.58C156.903 356.099 164.849 358.042 172.69 360.249C180.548 362.456 188.23 365.052 195.771 367.931C210.375 373.493 224.361 380.204 237.676 388.045C244.651 392.142 251.433 396.503 258.002 401.183C264.712 405.969 271.211 410.984 277.445 416.317C291.554 428.396 304.375 441.888 315.818 456.527C336.586 483.104 352.726 513.443 362.739 546.501C367.595 562.554 371.056 579.224 372.928 596.353C372.805 597.819 372.822 599.32 372.699 600.786C372.098 608.821 371.516 616.856 371.48 625.032C371.48 625.562 371.392 626.074 371.392 626.621C371.392 634.356 372.045 641.914 372.54 649.525C372.699 651.962 372.699 654.452 372.911 656.889C371.463 670.081 368.867 682.919 365.635 695.492C363.604 703.386 361.256 711.156 358.554 718.767C355.781 726.573 352.726 734.202 349.3 741.671C346.545 747.658 343.808 753.627 340.647 759.384C332.206 757.989 323.871 756.382 315.642 754.421C307.448 752.461 299.219 750.589 291.237 748.082C295.281 741.742 298.971 735.173 302.362 728.392ZM746.616 287.21C735.42 286.098 724.1 285.497 712.604 285.497C704.34 285.497 696.234 286.151 688.093 286.733C627.522 191.709 521.46 128.506 400.424 128.506C279.581 128.506 173.661 191.515 113.037 286.274C107.916 286.045 102.865 285.497 97.691 285.497C82.4334 285.497 67.5114 286.839 52.7835 288.782C99.9514 141.963 237.694 35.3362 399.982 35.3362C561.688 35.3185 698.971 141.203 746.616 287.21ZM594.005 307.095C585.934 310.097 578.023 313.311 570.253 316.895C528.348 270.363 467.847 240.89 400.424 240.89C334.555 240.89 275.255 269.039 233.473 313.734C225.562 310.291 217.421 307.342 209.209 304.516C201.033 301.691 192.698 299.219 184.239 296.994C235.045 233.526 312.993 192.716 400.424 192.716C488.755 192.716 567.374 234.427 618.127 299.024C609.951 301.391 601.951 304.145 594.005 307.095ZM508.11 354.033C501.594 358.925 495.219 363.975 489.073 369.308C465.41 348.4 434.436 335.597 400.441 335.597C368.743 335.597 339.641 346.704 316.666 365.141C310.362 359.86 303.722 354.987 297.046 350.148C290.371 345.327 283.502 340.788 276.473 336.444C309.037 306.123 352.55 287.405 400.441 287.405C450.17 287.405 495.272 307.465 528.206 339.87C521.301 344.338 514.662 349.106 508.11 354.033ZM405.156 479.484C391.082 450.135 372.981 423.151 351.49 399.188C365.388 389.51 382.217 383.753 400.441 383.753C421.173 383.753 439.945 391.4 454.797 403.638C435.018 426.471 418.366 451.954 405.156 479.484Z" fill="black"/>
</g>
<defs>
<clipPath id="clip0_10_33">
<rect width="800" height="800" fill="white"/>
</clipPath>
</defs>
</svg>
